<svg id="Capa_1" enable-background="new 0 0 512 512" height="512" viewBox="0 0 512 512" width="512" xmlns="http://www.w3.org/2000/svg"><g><path d="m209.72 372.261c0 25.45 20.631 46.082 46.082 46.082s46.082-20.631 46.082-46.082c0-25.45-46.082-143.182-46.082-143.182s-46.082 117.732-46.082 143.182z"/><path d="m271.02 63.884v72.192c22.707 1.831 44.25 7.775 63.888 17.087l36.104-62.534c-30.374-15.269-64.196-24.677-99.992-26.745z"/><path d="m439.801 304.857h72.192c-2.068-35.795-11.476-69.618-26.744-99.992l-62.535 36.104c9.311 19.638 15.256 41.181 17.087 63.888z"/><path d="m240.979 63.884c-35.795 2.068-69.618 11.476-99.992 26.744l36.104 62.534c19.638-9.312 41.181-15.256 63.888-17.087z"/><path d="m89.286 240.969-62.534-36.104c-15.269 30.374-24.676 64.197-26.744 99.992h72.192c1.83-22.707 7.775-44.25 17.086-63.888z"/><path d="m439.784 334.897c-2.256 27.955-10.724 54.156-24.056 77.198l62.388 36.02c19.471-33.652 31.51-72.138 33.884-113.218z"/><path d="m397.014 105.675-36.104 62.535c18.253 12.649 34.109 28.506 46.758 46.758l62.535-36.104c-19.18-29.075-44.115-54.01-73.189-73.189z"/><path d="m0 334.897c2.374 41.08 14.413 79.566 33.884 113.218l62.388-36.02c-13.333-23.043-21.801-49.243-24.056-77.198z"/><path d="m41.798 178.863 62.534 36.104c12.649-18.253 28.506-34.109 46.758-46.759l-36.104-62.534c-29.074 19.18-54.009 44.115-73.188 73.189z"/></g></svg>